<!-- Generated by IcoMoon.io -->
<svg version="1.1" xmlns="http://www.w3.org/2000/svg" width="32" height="32" viewBox="0 0 32 32">
<path fill="#2e2f42" d="M32.833 22.098l-9.049-8.505 1.004-4.615c0.259 0.094 0.535 0.144 0.813 0.146h0.007c1.278 0.014 2.326-0.941 2.341-2.133s-1.008-2.17-2.286-2.184c-1.278-0.014-2.326 0.941-2.341 2.133-0.003 0.255 0.042 0.509 0.134 0.749l-5.316 0.605-8.671-8.133c-0.106-0.101-0.252-0.159-0.404-0.16-0.15 0.001-0.294 0.056-0.4 0.155l-1.621 1.504c-0.223 0.208-0.223 0.546 0 0.754l0.872 0.826c-3.379 5.798-2.282 12.978 2.7 17.663 0.046 0.041 0.099 0.074 0.157 0.098-0.036 0.18-0.055 0.364-0.056 0.547v6.187h-6.859c-1.578 0.002-2.856 1.195-2.858 2.667v1.067c0 0.295 0.256 0.533 0.572 0.533h26.293c0.316 0 0.572-0.239 0.572-0.533v-1.067c-0.002-1.472-1.28-2.665-2.858-2.667h-6.859v-2.742c1.075 0.21 2.169 0.317 3.267 0.32 2.634-0.003 5.227-0.615 7.545-1.783l0.877 0.823c0.106 0.101 0.252 0.159 0.404 0.16 0.15-0.001 0.294-0.056 0.4-0.155l1.621-1.504c0.223-0.208 0.223-0.546 0-0.754zM24.802 6.233c0.448-0.415 1.171-0.414 1.617 0.004s0.443 1.093-0.004 1.508c-0.214 0.199-0.504 0.31-0.806 0.31h-0.003c-0.631-0.003-1.141-0.483-1.137-1.072 0.002-0.282 0.123-0.552 0.337-0.751h-0.002zM23.456 9.738l-0.641 2.946-1.26-1.182 1.901-1.763zM22.807 8.836l-2.058 1.909-1.592-1.493 3.65-0.415zM25.578 28.8c0.947 0 1.715 0.716 1.715 1.6v0.533h-25.15v-0.533c0-0.884 0.768-1.6 1.715-1.6h21.72zM17.576 26.667v1.067h-5.716v-1.067h5.716zM11.86 25.6v-4.053c0-1.294 1.282-2.347 2.858-2.347s2.858 1.053 2.858 2.347v4.053h-5.716zM18.719 23.904v-2.357c0-1.882-1.795-3.413-4.001-3.413-1.427-0.020-2.76 0.657-3.516 1.786-4.349-4.274-5.328-10.645-2.442-15.887l19.936 18.708c-3.078 1.461-6.607 1.873-9.976 1.163zM30.818 23.22l-22.567-21.181 0.809-0.752 8.504 7.98c0.004 0 0.006 0.007 0.010 0.010l14.055 13.191-0.811 0.752z"></path>
<path fill="#4d5ae5" d="M13.876 20.267h-0.005c-0.884-0.001-1.601 0.714-1.602 1.598s0.714 1.601 1.598 1.602h0.005c0.884 0.001 1.601-0.714 1.602-1.598s-0.714-1.601-1.598-1.602zM14.249 22.245c-0.1 0.1-0.236 0.156-0.378 0.155-0.295-0.002-0.532-0.242-0.531-0.536 0.001-0.141 0.057-0.276 0.157-0.375s0.233-0.154 0.373-0.155c0.295 0.002 0.532 0.242 0.531 0.536-0.001 0.141-0.057 0.276-0.157 0.375h0.005z"></path>
</svg>
