<!-- Generated by IcoMoon.io -->
<svg version="1.1" xmlns="http://www.w3.org/2000/svg" width="32" height="32" viewBox="0 0 32 32">
<path fill="#4d5ae5" d="M31.974 4.524c-0.063-0.193-0.229-0.333-0.43-0.363l-1.91-0.278-0.855-1.731c-0.179-0.365-0.777-0.365-0.956 0l-0.855 1.731-1.91 0.278c-0.201 0.029-0.367 0.17-0.431 0.363-0.062 0.193-0.011 0.405 0.135 0.547l1.383 1.348-0.326 1.903c-0.034 0.2 0.048 0.402 0.212 0.522 0.166 0.121 0.382 0.135 0.562 0.040l1.709-0.899 1.709 0.899c0.078 0.041 0.164 0.061 0.249 0.061 0.11 0 0.221-0.034 0.314-0.102 0.164-0.119 0.246-0.322 0.212-0.522l-0.326-1.903 1.383-1.348c0.145-0.142 0.197-0.354 0.135-0.547zM29.511 5.851c-0.125 0.122-0.183 0.299-0.153 0.472l0.191 1.114-1-0.526c-0.078-0.041-0.163-0.061-0.249-0.061s-0.17 0.020-0.249 0.061l-1.001 0.526 0.191-1.114c0.030-0.173-0.028-0.349-0.153-0.472l-0.81-0.789 1.119-0.163c0.174-0.025 0.324-0.134 0.402-0.292l0.5-1.013 0.5 1.013c0.078 0.157 0.228 0.267 0.402 0.292l1.119 0.163-0.809 0.789z"></path>
<path fill="#4d5ae5" d="M26.133 20.522h-1.067v1.067h1.067v-1.067z"></path>
<path fill="#4d5ae5" d="M26.133 22.656h-1.067v1.067h1.067v-1.067z"></path>
<path fill="#4d5ae5" d="M27.2 21.589h-1.067v1.067h1.067v-1.067z"></path>
<path fill="#4d5ae5" d="M25.067 21.589h-1.067v1.067h1.067v-1.067z"></path>
<path fill="#4d5ae5" d="M22.4 26.389h-1.067v1.067h1.067v-1.067z"></path>
<path fill="#4d5ae5" d="M22.4 28.522h-1.067v1.067h1.067v-1.067z"></path>
<path fill="#4d5ae5" d="M23.467 27.456h-1.067v1.067h1.067v-1.067z"></path>
<path fill="#4d5ae5" d="M21.333 27.456h-1.067v1.067h1.067v-1.067z"></path>
<path fill="#4d5ae5" d="M16 24.256h-1.067v1.067h1.067v-1.067z"></path>
<path fill="#4d5ae5" d="M16 26.389h-1.067v1.067h1.067v-1.067z"></path>
<path fill="#4d5ae5" d="M17.067 25.322h-1.067v1.067h1.067v-1.067z"></path>
<path fill="#4d5ae5" d="M14.933 25.322h-1.067v1.067h1.067v-1.067z"></path>
<path fill="#4d5ae5" d="M5.867 6.122h-1.067v1.067h1.067v-1.067z"></path>
<path fill="#4d5ae5" d="M5.867 8.255h-1.067v1.067h1.067v-1.067z"></path>
<path fill="#4d5ae5" d="M6.933 7.189h-1.067v1.067h1.067v-1.067z"></path>
<path fill="#4d5ae5" d="M4.8 7.189h-1.067v1.067h1.067v-1.067z"></path>
<path fill="#2e2f42" d="M31.551 16.081c-0.367-0.447-0.905-0.735-1.517-0.813-0.614-0.079-1.22 0.067-1.71 0.406l-1.599 1.108-2.422 1.635-1.733-0.624c3.091-1.254 5.252-4.048 5.252-7.293 0-4.411-3.986-8.001-8.887-8.001s-8.886 3.589-8.886 8.001c0 1.599 0.529 3.086 1.43 4.337l-3.528-0.028c-0.002 0-0.004 0-0.006 0-0.011 0-0.020 0.005-0.030 0.006-0.067 0.002-0.133 0.015-0.198 0.036-0.016 0.006-0.033 0.009-0.049 0.015-0.008 0.003-0.016 0.004-0.024 0.007l-4.127 1.842c-0.001 0-0.001 0-0.001 0.001l-2.417 1.051c-0.027 0.010-0.054 0.025-0.080 0.041-0.963 0.58-1.292 1.718-0.764 2.649 0.281 0.495 0.76 0.859 1.348 1.026 0.227 0.064 0.458 0.095 0.688 0.095 0.37 0 0.736-0.082 1.072-0.244l1.772-0.852 2.89-1.349 1.732-0.009-6.947 6.249c-0.001 0.001-0.001 0.001-0.002 0.001l-1.709 1.539c-0.404 0.363-0.626 0.845-0.626 1.359s0.222 0.996 0.626 1.36c0.415 0.373 0.96 0.56 1.505 0.56s1.091-0.187 1.507-0.56l1.678-1.51 2.222-1.5 1.15 1.035-2.249 2.024c-0.001 0.001-0.001 0.001-0.002 0.001l-1.709 1.539c-0.404 0.363-0.626 0.845-0.626 1.359s0.222 0.996 0.626 1.36c0.415 0.373 0.961 0.56 1.506 0.56s1.091-0.187 1.507-0.56l4.445-4c0.001-0.001 0.001-0.001 0.001-0.002l1.289-1.154-0.005-0.004c0.008-0.007 0.020-0.010 0.028-0.018l6.595-6.529 4.431 0.57c0.032 0.004 0.064 0.006 0.096 0.006 0.082 0 0.162-0.018 0.239-0.044 0.023-0.007 0.042-0.017 0.063-0.027 0.024-0.011 0.050-0.017 0.074-0.031l4.102-2.462c0.015-0.009 0.023-0.024 0.037-0.034 0.016-0.012 0.037-0.017 0.052-0.030l1.623-1.374c0.845-0.715 0.961-1.887 0.271-2.725zM2.72 20.248c-0.221 0.107-0.473 0.129-0.713 0.060-0.238-0.067-0.432-0.214-0.545-0.413-0.206-0.362-0.087-0.803 0.274-1.041l1.677-0.729 0.573 1.515-1.266 0.609zM7.184 18.139l-1.976 0.923-0.56-1.481 2.587-1.155-0.051 1.712zM26.46 10.499c0 1.060-0.28 2.059-0.765 2.953l-5.338-2.192c-0.056-0.662-0.436-1.241-1.006-1.601l1.869-5.608c3.035 0.873 5.24 3.432 5.24 6.448zM11.41 10.499c0-3.733 3.376-6.77 7.525-6.77 0.323 0 0.639 0.025 0.951 0.060l-1.828 5.485c-0.024-0.001-0.048-0.007-0.073-0.007-1.318 0-2.391 0.966-2.391 2.154s1.072 2.154 2.391 2.154c0.886 0 1.652-0.442 2.066-1.090l4.931 2.025c-1.372 1.669-3.568 2.758-6.047 2.758-4.149 0-7.525-3.037-7.525-6.77zM19.014 11.422c0 0.509-0.462 0.923-1.029 0.923s-1.029-0.414-1.029-0.923c0-0.509 0.462-0.923 1.029-0.923s1.029 0.414 1.029 0.923zM3.147 28.759c-0.302 0.27-0.79 0.27-1.091 0.001-0.145-0.131-0.225-0.304-0.225-0.488s0.080-0.356 0.225-0.486l1.228-1.106 1.087 0.978-1.224 1.102zM7.249 33.067c-0.302 0.27-0.79 0.271-1.091 0.001-0.145-0.131-0.225-0.304-0.225-0.488s0.080-0.356 0.225-0.486l1.229-1.107 1.087 0.978-1.225 1.102zM11.694 29.065c-0.001 0.001-0.001 0.001-0.002 0.001l-2.253 2.031-1.087-0.978 2.251-2.025c0 0 0 0 0-0.001s0.001-0.001 0.002-0.001c0.051-0.046 0.083-0.102 0.114-0.156 0.009-0.016 0.026-0.030 0.033-0.046 0.021-0.047 0.024-0.098 0.033-0.148 0.004-0.028 0.018-0.055 0.018-0.084 0-0.041-0.016-0.081-0.026-0.122-0.008-0.037-0.008-0.075-0.024-0.11-0.026-0.058-0.070-0.109-0.116-0.159-0.013-0.014-0.018-0.031-0.032-0.044 0 0 0 0-0.001 0s-0.001-0.002-0.001-0.002l-2.051-1.846c-0.022-0.020-0.050-0.028-0.074-0.044-0.036-0.025-0.071-0.049-0.111-0.067-0.039-0.017-0.078-0.028-0.119-0.038-0.044-0.011-0.086-0.020-0.131-0.023-0.042-0.002-0.080 0.001-0.122 0.006-0.046 0.005-0.088 0.010-0.133 0.023-0.043 0.012-0.081 0.031-0.12 0.052-0.025 0.013-0.054 0.017-0.078 0.033l-2.264 1.527-1.15-1.035 3.063-2.753 5.567 4.949-1.184 1.060zM20.399 20.968c-0.020-0.002-0.038 0.004-0.058 0.003-0.050-0.002-0.097 0.001-0.147 0.008-0.039 0.006-0.076 0.013-0.112 0.025-0.044 0.014-0.083 0.032-0.123 0.054-0.038 0.021-0.073 0.043-0.106 0.071-0.016 0.013-0.036 0.019-0.051 0.034l-5.998 5.938-5.525-4.912 3.617-3.252c0.266-0.24 0.268-0.63 0.002-0.871-0.134-0.121-0.31-0.181-0.487-0.18v-0.001l-2.832 0.015 0.035-1.855 3.963 0.031c1.615 1.493 3.867 2.424 6.359 2.424 0.558 0 1.103-0.052 1.633-0.142 0.051 0.037 0.101 0.075 0.165 0.098l3.076 1.108 0.195 0.875 0.227 1.022-3.833-0.493zM25.558 21.173l-0.4-1.798 1.846-1.246 1.209 1.45-2.655 1.594zM30.349 17.907l-1.070 0.906-1.189-1.427 1.061-0.735c0.198-0.138 0.448-0.194 0.693-0.165 0.246 0.031 0.464 0.148 0.613 0.328 0.276 0.337 0.23 0.806-0.109 1.093z"></path>
<path fill="#2e2f42" d="M13.602 18.544l-2.143-2.133c-0.207-0.207-0.545-0.207-0.753 0l-2.142 2.133c-0.1 0.101-0.157 0.236-0.157 0.378s0.056 0.278 0.157 0.378l2.142 2.133c0.104 0.103 0.241 0.155 0.377 0.155s0.273-0.052 0.376-0.155l2.143-2.133c0.1-0.1 0.157-0.236 0.157-0.378s-0.057-0.278-0.157-0.378zM11.083 20.303l-1.387-1.381 1.387-1.381 1.387 1.381-1.387 1.381z"></path>
<path fill="#2e2f42" d="M17.164 5.071l-0.258 1.036c0.071 0.018 1.738 0.452 1.738 2.149h1.067c-0-2.017-1.666-2.965-2.547-3.185z"></path>
<path fill="#2e2f42" d="M19.711 9.322h-1.067v1.067h1.067v-1.067z"></path>
</svg>
