<!-- Generated by IcoMoon.io -->
<svg version="1.1" xmlns="http://www.w3.org/2000/svg" width="32" height="32" viewBox="0 0 32 32">
<path fill="#2e2f42" d="M32.5 15.301c-0.002-8.452-7.167-15.303-16.003-15.301s-15.998 6.856-15.997 15.308c0.002 6.658 4.503 12.551 11.133 14.576 0.063 0.019 0.129 0.029 0.195 0.029 0.126-0 0.25-0.032 0.358-0.094 0.141-0.080 0.247-0.207 0.296-0.356l4.041-12.25c1.105-0.005 1.995-0.866 1.99-1.923s-0.906-1.909-2.010-1.903c-0.297 0.001-0.59 0.067-0.857 0.191l-5.338-5.107c-0.265-0.245-0.687-0.238-0.943 0.016-0.25 0.247-0.25 0.639 0 0.886l5.335 5.109c-0.409 0.799-0.175 1.764 0.561 2.309l-3.85 11.673c-7.609-2.681-11.504-10.754-8.702-18.032s11.243-11.004 18.851-8.323c7.609 2.681 11.504 10.754 8.702 18.032-1.369 3.556-4.183 6.431-7.801 7.973l-0.416-1.874c-0.076-0.345-0.43-0.565-0.79-0.492-0.114 0.023-0.219 0.074-0.306 0.148l-4.011 3.425c-0.275 0.234-0.3 0.637-0.055 0.9 0.080 0.085 0.182 0.149 0.296 0.184l5.121 1.564c0.35 0.108 0.726-0.077 0.838-0.412 0.036-0.106 0.042-0.219 0.018-0.328l-0.409-1.839c5.922-2.388 9.767-7.942 9.753-14.089zM16.5 14.664c0.368 0 0.667 0.286 0.667 0.638s-0.299 0.638-0.667 0.638c-0.368 0-0.667-0.285-0.667-0.638s0.298-0.638 0.667-0.638zM18.696 29.528l2.283-1.948 0.63 2.84-2.913-0.892z"></path>
<path fill="#4d5ae5" d="M15.354 3.185v1.275c0 0.352 0.285 0.638 0.638 0.638s0.638-0.285 0.638-0.638v-1.275c0-0.352-0.286-0.638-0.638-0.638s-0.638 0.286-0.638 0.638z"></path>
<path fill="#4d5ae5" d="M3.876 14.664c-0.352 0-0.638 0.286-0.638 0.638s0.285 0.638 0.638 0.638h1.275c0.352 0 0.638-0.285 0.638-0.638s-0.285-0.638-0.638-0.638h-1.275z"></path>
<path fill="#4d5ae5" d="M28.108 15.939c0.352 0 0.638-0.285 0.638-0.638s-0.285-0.638-0.638-0.638h-1.275c-0.352 0-0.638 0.286-0.638 0.638s0.286 0.638 0.638 0.638h1.275z"></path>
</svg>
