<!-- Generated by IcoMoon.io -->
<svg version="1.1" xmlns="http://www.w3.org/2000/svg" width="32" height="32" viewBox="0 0 32 32">
<path fill="#4d5ae5" d="M14.925 14.965h1.066v4.798h-1.066v-4.797z"></path>
<path fill="#4d5ae5" d="M19.19 17.097h1.066v2.665h-1.066v-2.665z"></path>
<path fill="#4d5ae5" d="M10.661 18.696h1.066v1.066h-1.066v-1.066z"></path>
<path fill="#4d5ae5" d="M7.463 18.163h1.066v1.599h-1.066v-1.599z"></path>
<path fill="#2e2f42" d="M1.599 35.5h25.587c0.883 0 1.599-0.934 1.599-2.085v-2.78c0-1.151-0.716-2.085-1.599-2.085h-0.533v-17.332l3.028-3.74c0.703 0.452 1.553 0.177 2.013-0.65s0.396-1.967-0.152-2.697-1.42-0.839-2.065-0.258c-0.644 0.582-0.873 1.684-0.542 2.61l-2.281 2.82v-1.604c0-1.152-0.716-2.085-1.599-2.085h-21.322c-0.883 0-1.599 0.934-1.599 2.085v20.851h-0.533c-0.883 0-1.599 0.934-1.599 2.085v2.78c0 1.151 0.716 2.085 1.599 2.085zM30.384 4.919c0.294 0 0.533 0.311 0.533 0.695s-0.239 0.695-0.533 0.695c-0.294 0-0.533-0.311-0.533-0.695s0.239-0.695 0.533-0.695zM3.198 7.699c0-0.384 0.239-0.695 0.533-0.695h21.322c0.294 0 0.533 0.311 0.533 0.695v2.919l-1.066 1.321v-2.85c0-0.384-0.239-0.695-0.533-0.695h-19.19c-0.294 0-0.533 0.311-0.533 0.695v17.375c0 0.384 0.239 0.695 0.533 0.695h19.19c0.294 0 0.533-0.311 0.533-0.695v-12.614l1.066-1.317v16.016h-22.388v-20.851zM7.996 16.734c-0.721-0.003-1.354 0.624-1.546 1.53s0.105 1.868 0.725 2.348c0.62 0.48 1.41 0.359 1.928-0.295l1.853 1.212c0.215 0.14 0.476 0.075 0.636-0.16l3.939-5.778 3.872 3.783c0.208 0.203 0.498 0.181 0.686-0.051l3.365-4.156v10.602h-18.124v-15.985h18.124v3.469l-3.771 4.657-3.904-3.817c-0.222-0.216-0.534-0.176-0.718 0.094l-3.993 5.858-1.493-0.973c0.011-0.083 0.018-0.168 0.020-0.252 0-1.151-0.716-2.085-1.599-2.085zM8.529 18.82c0 0.384-0.239 0.695-0.533 0.695s-0.533-0.311-0.533-0.695c0-0.384 0.239-0.695 0.533-0.695s0.533 0.311 0.533 0.695zM11.727 29.94h5.331v0.695c0 0.384-0.239 0.695-0.533 0.695h-4.264c-0.294 0-0.533-0.311-0.533-0.695v-0.695zM1.066 30.635c0-0.384 0.239-0.695 0.533-0.695h9.062v0.695c0 1.151 0.716 2.085 1.599 2.085h4.264c0.883 0 1.599-0.934 1.599-2.085v-0.695h9.062c0.294 0 0.533 0.311 0.533 0.695v2.78c0 0.384-0.239 0.695-0.533 0.695h-25.587c-0.294 0-0.533-0.311-0.533-0.695v-2.78z"></path>
</svg>
