<svg xmlns="http://www.w3.org/2000/svg" aria-hidden="true" style="position:absolute;width:0;height:0;overflow:hidden">
  <defs>
    <symbol id="icon-antenna" viewBox="0 0 32 32">
      <path fill="#2e2f42"
        d="m32.833 22.098-9.049-8.505 1.004-4.615c.259.094.535.144.813.146h.007c1.278.014 2.326-.941 2.341-2.133s-1.008-2.17-2.286-2.184c-1.278-.014-2.326.941-2.341 2.133-.003.255.042.509.134.749l-5.316.605L9.469.161C9.363.06 9.217.002 9.065.001c-.15.001-.294.056-.4.155L7.044 1.66c-.223.208-.223.546 0 .754l.872.826c-3.379 5.798-2.282 12.978 2.7 17.663.046.041.099.074.157.098-.036.18-.055.364-.056.547v6.187H3.858C2.28 27.737 1.002 28.93 1 30.402v1.067c0 .295.256.533.572.533h26.293c.316 0 .572-.239.572-.533v-1.067c-.002-1.472-1.28-2.665-2.858-2.667H18.72v-2.742c1.075.21 2.169.317 3.267.32 2.634-.003 5.227-.615 7.545-1.783l.877.823c.106.101.252.159.404.16.15-.001.294-.056.4-.155l1.621-1.504c.223-.208.223-.546 0-.754zM24.802 6.233c.448-.415 1.171-.414 1.617.004s.443 1.093-.004 1.508c-.214.199-.504.31-.806.31h-.003c-.631-.003-1.141-.483-1.137-1.072.002-.282.123-.552.337-.751h-.002zm-1.346 3.505-.641 2.946-1.26-1.182 1.901-1.763zm-.649-.902-2.058 1.909-1.592-1.493 3.65-.415zM25.578 28.8c.947 0 1.715.716 1.715 1.6v.533H2.143V30.4c0-.884.768-1.6 1.715-1.6h21.72zm-8.002-2.133v1.067H11.86v-1.067h5.716zM11.86 25.6v-4.053c0-1.294 1.282-2.347 2.858-2.347s2.858 1.053 2.858 2.347V25.6H11.86zm6.859-1.696v-2.357c0-1.882-1.795-3.413-4.001-3.413-1.427-.02-2.76.657-3.516 1.786C6.853 15.646 5.874 9.275 8.76 4.033l19.936 18.708c-3.078 1.461-6.607 1.873-9.976 1.163zm12.099-.684L8.251 2.039l.809-.752 8.504 7.98c.004 0 .006.007.01.01l14.055 13.191-.811.752z"
        style="fill:var(--color1, #2e2f42)" />
      <path fill="#4d5ae5"
        d="M13.876 20.267h-.005c-.884-.001-1.601.714-1.602 1.598s.714 1.601 1.598 1.602h.005c.884.001 1.601-.714 1.602-1.598s-.714-1.601-1.598-1.602zm.373 1.978c-.1.1-.236.156-.378.155a.5343.5343 0 0 1-.531-.536.5325.5325 0 0 1 .53-.53c.295.002.532.242.531.536a.5325.5325 0 0 1-.157.375h.005z"
        style="fill:var(--color2, #4d5ae5)" />
    </symbol>
    <symbol id="icon-astronaut" viewBox="0 0 32 32">
      <path fill="#4d5ae5"
        d="M31.974 4.524a.5343.5343 0 0 0-.43-.363l-1.91-.278-.855-1.731c-.179-.365-.777-.365-.956 0l-.855 1.731-1.91.278a.5354.5354 0 0 0-.431.363.5342.5342 0 0 0 .135.547l1.383 1.348-.326 1.903c-.034.2.048.402.212.522.166.121.382.135.562.04l1.709-.899 1.709.899c.078.041.164.061.249.061.11 0 .221-.034.314-.102a.5347.5347 0 0 0 .212-.522l-.326-1.903 1.383-1.348a.5363.5363 0 0 0 .135-.547zm-2.463 1.327a.5335.5335 0 0 0-.153.472l.191 1.114-1-.526c-.078-.041-.163-.061-.249-.061s-.17.02-.249.061l-1.001.526.191-1.114a.5344.5344 0 0 0-.153-.472l-.81-.789 1.119-.163a.5324.5324 0 0 0 .402-.292l.5-1.013.5 1.013c.078.157.228.267.402.292l1.119.163-.809.789zm-3.378 14.671h-1.067v1.067h1.067v-1.067zm0 2.134h-1.067v1.067h1.067v-1.067zm1.067-1.067h-1.067v1.067H27.2v-1.067zm-2.133 0H24v1.067h1.067v-1.067zm-2.667 4.8h-1.067v1.067H22.4v-1.067zm0 2.133h-1.067v1.067H22.4v-1.067zm1.067-1.066H22.4v1.067h1.067v-1.067zm-2.134 0h-1.067v1.067h1.067v-1.067zM16 24.256h-1.067v1.067H16v-1.067zm0 2.133h-1.067v1.067H16v-1.067zm1.067-1.067H16v1.067h1.067v-1.067zm-2.134 0h-1.067v1.067h1.067v-1.067zm-9.066-19.2H4.8v1.067h1.067V6.122zm0 2.133H4.8v1.067h1.067V8.255z"
        style="fill:var(--color2, #4d5ae5)" />
      <path fill="#4d5ae5" d="M6.933 7.189H5.866v1.067h1.067V7.189zm-2.133 0H3.733v1.067H4.8V7.189z"
        style="fill:var(--color2, #4d5ae5)" />
      <path fill="#2e2f42"
        d="M31.551 16.081c-.367-.447-.905-.735-1.517-.813-.614-.079-1.22.067-1.71.406l-1.599 1.108-2.422 1.635-1.733-.624c3.091-1.254 5.252-4.048 5.252-7.293 0-4.411-3.986-8.001-8.887-8.001s-8.886 3.589-8.886 8.001c0 1.599.529 3.086 1.43 4.337l-3.528-.028h-.006c-.011 0-.02.005-.03.006a.7122.7122 0 0 0-.198.036c-.016.006-.033.009-.049.015-.008.003-.016.004-.024.007l-4.127 1.842c-.001 0-.001 0-.001.001l-2.417 1.051a.4657.4657 0 0 0-.08.041c-.963.58-1.292 1.718-.764 2.649.281.495.76.859 1.348 1.026.227.064.458.095.688.095.37 0 .736-.082 1.072-.244l1.772-.852 2.89-1.349 1.732-.009-6.947 6.249c-.001.001-.001.001-.002.001l-1.709 1.539c-.404.363-.626.845-.626 1.359s.222.996.626 1.36c.415.373.96.56 1.505.56s1.091-.187 1.507-.56l1.678-1.51 2.222-1.5 1.15 1.035-2.249 2.024c-.001.001-.001.001-.002.001l-1.709 1.539c-.404.363-.626.845-.626 1.359s.222.996.626 1.36c.415.373.961.56 1.506.56s1.091-.187 1.507-.56l4.445-4c.001-.001.001-.001.001-.002l1.289-1.154-.005-.004c.008-.007.02-.01.028-.018l6.595-6.529 4.431.57c.032.004.064.006.096.006.082 0 .162-.018.239-.044.023-.007.042-.017.063-.027.024-.011.05-.017.074-.031l4.102-2.462c.015-.009.023-.024.037-.034.016-.012.037-.017.052-.03l1.623-1.374c.845-.715.961-1.887.271-2.725zM2.72 20.248a.9975.9975 0 0 1-.713.06c-.238-.067-.432-.214-.545-.413-.206-.362-.087-.803.274-1.041l1.677-.729.573 1.515-1.266.609zm4.464-2.109-1.976.923-.56-1.481 2.587-1.155-.051 1.712zm19.276-7.64c0 1.06-.28 2.059-.765 2.953l-5.338-2.192c-.056-.662-.436-1.241-1.006-1.601l1.869-5.608c3.035.873 5.24 3.432 5.24 6.448zm-15.05 0c0-3.733 3.376-6.77 7.525-6.77.323 0 .639.025.951.06l-1.828 5.485c-.024-.001-.048-.007-.073-.007-1.318 0-2.391.966-2.391 2.154s1.072 2.154 2.391 2.154c.886 0 1.652-.442 2.066-1.09l4.931 2.025c-1.372 1.669-3.568 2.758-6.047 2.758-4.149 0-7.525-3.037-7.525-6.77zm7.604.923c0 .509-.462.923-1.029.923s-1.029-.414-1.029-.923c0-.509.462-.923 1.029-.923s1.029.414 1.029.923zM3.147 28.759c-.302.27-.79.27-1.091.001-.145-.131-.225-.304-.225-.488s.08-.356.225-.486l1.228-1.106 1.087.978-1.224 1.102zm4.102 4.308c-.302.27-.79.271-1.091.001-.145-.131-.225-.304-.225-.488s.08-.356.225-.486l1.229-1.107 1.087.978-1.225 1.102zm4.445-4.002c-.001.001-.001.001-.002.001l-2.253 2.031-1.087-.978 2.251-2.025v-.001c0-.001.001-.001.002-.001.051-.046.083-.102.114-.156.009-.016.026-.03.033-.046.021-.047.024-.098.033-.148.004-.028.018-.055.018-.084 0-.041-.016-.081-.026-.122-.008-.037-.008-.075-.024-.11-.026-.058-.07-.109-.116-.159-.013-.014-.018-.031-.032-.044h-.001c-.001 0-.001-.002-.001-.002l-2.051-1.846c-.022-.02-.05-.028-.074-.044-.036-.025-.071-.049-.111-.067a.7162.7162 0 0 0-.119-.038.7338.7338 0 0 0-.131-.023.7126.7126 0 0 0-.122.006c-.046.005-.088.01-.133.023-.043.012-.081.031-.12.052-.025.013-.054.017-.078.033L5.4 26.844l-1.15-1.035 3.063-2.753 5.567 4.949-1.184 1.06zm8.705-8.097c-.02-.002-.038.004-.058.003a.8056.8056 0 0 0-.147.008.6755.6755 0 0 0-.112.025.675.675 0 0 0-.123.054.6326.6326 0 0 0-.106.071c-.016.013-.036.019-.051.034l-5.998 5.938-5.525-4.912 3.617-3.252c.266-.24.268-.63.002-.871-.134-.121-.31-.181-.487-.18v-.001l-2.832.015.035-1.855 3.963.031c1.615 1.493 3.867 2.424 6.359 2.424.558 0 1.103-.052 1.633-.142.051.037.101.075.165.098l3.076 1.108.195.875.227 1.022-3.833-.493zm5.159.205-.4-1.798 1.846-1.246 1.209 1.45-2.655 1.594zm4.791-3.266-1.07.906-1.189-1.427 1.061-.735c.198-.138.448-.194.693-.165.246.031.464.148.613.328.276.337.23.806-.109 1.093z"
        style="fill:var(--color1, #2e2f42)" />
      <path fill="#2e2f42"
        d="m13.602 18.544-2.143-2.133c-.207-.207-.545-.207-.753 0l-2.142 2.133c-.1.101-.157.236-.157.378s.056.278.157.378l2.142 2.133c.104.103.241.155.377.155s.273-.052.376-.155l2.143-2.133c.1-.1.157-.236.157-.378s-.057-.278-.157-.378zm-2.519 1.759-1.387-1.381 1.387-1.381 1.387 1.381-1.387 1.381zm6.081-15.232-.258 1.036c.071.018 1.738.452 1.738 2.149h1.067c0-2.017-1.666-2.965-2.547-3.185zm2.547 4.251h-1.067v1.067h1.067V9.322z"
        style="fill:var(--color1, #2e2f42)" />
    </symbol>
    <symbol id="icon-clock" viewBox="0 0 32 32">
      <path fill="#2e2f42"
        d="M32.5 15.301C32.498 6.849 25.333-.002 16.497 0S.499 6.856.5 15.308c.002 6.658 4.503 12.551 11.133 14.576.063.019.129.029.195.029.126 0 .25-.032.358-.094.141-.08.247-.207.296-.356l4.041-12.25c1.105-.005 1.995-.866 1.99-1.923s-.906-1.909-2.01-1.903c-.297.001-.59.067-.857.191l-5.338-5.107c-.265-.245-.687-.238-.943.016-.25.247-.25.639 0 .886l5.335 5.109c-.409.799-.175 1.764.561 2.309l-3.85 11.673C3.802 25.783-.093 17.71 2.709 10.432S13.952-.572 21.56 2.109c7.609 2.681 11.504 10.754 8.702 18.032-1.369 3.556-4.183 6.431-7.801 7.973l-.416-1.874c-.076-.345-.43-.565-.79-.492a.6786.6786 0 0 0-.306.148l-4.011 3.425c-.275.234-.3.637-.055.9.08.085.182.149.296.184l5.121 1.564c.35.108.726-.077.838-.412a.61.61 0 0 0 .018-.328l-.409-1.839c5.922-2.388 9.767-7.942 9.753-14.089zm-16-.637c.368 0 .667.286.667.638s-.299.638-.667.638c-.368 0-.667-.285-.667-.638s.298-.638.667-.638zm2.196 14.864 2.283-1.948.63 2.84-2.913-.892z"
        style="fill:var(--color1, #2e2f42)" />
      <path fill="#4d5ae5"
        d="M15.354 3.185V4.46c0 .352.285.638.638.638s.638-.285.638-.638V3.185c0-.352-.286-.638-.638-.638s-.638.286-.638.638zM3.876 14.664c-.352 0-.638.286-.638.638s.285.638.638.638h1.275c.352 0 .638-.285.638-.638s-.285-.638-.638-.638H3.876zm24.232 1.275c.352 0 .638-.285.638-.638s-.285-.638-.638-.638h-1.275c-.352 0-.638.286-.638.638s.286.638.638.638h1.275z"
        style="fill:var(--color2, #4d5ae5)" />
    </symbol>
    <symbol id="icon-diagram" viewBox="0 0 32 32">
      <path fill="#4d5ae5"
        d="M14.925 14.965h1.066v4.798h-1.066v-4.797zm4.265 2.132h1.066v2.665H19.19v-2.665zm-8.529 1.599h1.066v1.066h-1.066v-1.066zm-3.198-.533h1.066v1.599H7.463v-1.599z"
        style="fill:var(--color2, #4d5ae5)" />
      <path fill="#2e2f42"
        d="M1.599 35.5h25.587c.883 0 1.599-.934 1.599-2.085v-2.78c0-1.151-.716-2.085-1.599-2.085h-.533V11.218l3.028-3.74c.703.452 1.553.177 2.013-.65s.396-1.967-.152-2.697-1.42-.839-2.065-.258c-.644.582-.873 1.684-.542 2.61l-2.281 2.82V7.699c0-1.152-.716-2.085-1.599-2.085H3.733c-.883 0-1.599.934-1.599 2.085V28.55h-.533c-.883 0-1.599.934-1.599 2.085v2.78c0 1.151.716 2.085 1.599 2.085zM30.384 4.919c.294 0 .533.311.533.695s-.239.695-.533.695c-.294 0-.533-.311-.533-.695s.239-.695.533-.695zM3.198 7.699c0-.384.239-.695.533-.695h21.322c.294 0 .533.311.533.695v2.919l-1.066 1.321v-2.85c0-.384-.239-.695-.533-.695H4.797c-.294 0-.533.311-.533.695v17.375c0 .384.239.695.533.695h19.19c.294 0 .533-.311.533-.695V13.85l1.066-1.317v16.016H3.198V7.698zm4.798 9.035c-.721-.003-1.354.624-1.546 1.53s.105 1.868.725 2.348c.62.48 1.41.359 1.928-.295l1.853 1.212c.215.14.476.075.636-.16l3.939-5.778 3.872 3.783c.208.203.498.181.686-.051l3.365-4.156v10.602H5.33V9.784h18.124v3.469l-3.771 4.657-3.904-3.817c-.222-.216-.534-.176-.718.094l-3.993 5.858-1.493-.973c.011-.083.018-.168.02-.252 0-1.151-.716-2.085-1.599-2.085zm.533 2.086c0 .384-.239.695-.533.695s-.533-.311-.533-.695c0-.384.239-.695.533-.695s.533.311.533.695zm3.198 11.12h5.331v.695c0 .384-.239.695-.533.695h-4.264c-.294 0-.533-.311-.533-.695v-.695zm-10.661.695c0-.384.239-.695.533-.695h9.062v.695c0 1.151.716 2.085 1.599 2.085h4.264c.883 0 1.599-.934 1.599-2.085v-.695h9.062c.294 0 .533.311.533.695v2.78c0 .384-.239.695-.533.695H1.598c-.294 0-.533-.311-.533-.695v-2.78z"
        style="fill:var(--color1, #2e2f42)" />
    </symbol>
    <symbol id="icon-facebook" viewBox="0 0 32 32">
      <path
        d="M21.329 5.313h2.921V.225C23.746.156 22.013 0 19.994 0c-4.212 0-7.097 2.649-7.097 7.519V12H8.249v5.688h4.648V32h5.699V17.689h4.46l.708-5.688h-5.169V8.082c.001-1.644.444-2.769 2.735-2.769z" />
    </symbol>
    <symbol id="icon-instagram" viewBox="0 0 32 32">
      <path
        d="M31.969 9.408c-.075-1.7-.35-2.869-.744-3.882-.406-1.075-1.031-2.038-1.85-2.838A7.8671 7.8671 0 0 0 26.543.844C25.524.45 24.361.175 22.661.1 20.948.019 20.404 0 16.06 0s-4.888.019-6.595.094c-1.7.075-2.869.35-3.882.744-1.075.406-2.038 1.031-2.838 1.85-.813.8-1.444 1.769-1.844 2.832C.507 6.539.232 7.702.157 9.402c-.081 1.713-.1 2.257-.1 6.601s.019 4.888.094 6.595c.075 1.7.35 2.869.744 3.882.406 1.075 1.038 2.038 1.85 2.838.8.813 1.769 1.444 2.832 1.844 1.019.394 2.182.669 3.882.744 1.706.075 2.25.094 6.595.094s4.888-.019 6.595-.094c1.7-.075 2.869-.35 3.882-.744a8.1814 8.1814 0 0 0 4.682-4.682c.394-1.019.669-2.182.744-3.882.075-1.707.094-2.25.094-6.595s-.006-4.888-.081-6.595zm-2.882 13.065c-.069 1.563-.331 2.407-.55 2.969a5.3097 5.3097 0 0 1-3.038 3.038c-.563.219-1.413.481-2.969.55-1.688.075-2.194.094-6.464.094s-4.782-.019-6.464-.094c-1.563-.069-2.407-.331-2.969-.55-.694-.256-1.325-.663-1.838-1.194-.531-.519-.938-1.144-1.194-1.838-.219-.563-.481-1.413-.55-2.969-.075-1.688-.094-2.194-.094-6.464s.019-4.782.094-6.464c.069-1.563.331-2.407.55-2.969.256-.694.663-1.325 1.2-1.838.519-.531 1.144-.938 1.838-1.194.563-.219 1.413-.481 2.969-.55 1.688-.075 2.194-.094 6.464-.094 4.276 0 4.782.019 6.464.094 1.563.069 2.407.331 2.969.55.694.256 1.325.662 1.838 1.194.531.519.938 1.144 1.194 1.838.219.563.481 1.413.55 2.969.075 1.688.094 2.194.094 6.464s-.019 4.77-.094 6.458z" />
      <path
        d="M16.059 7.783c-4.538 0-8.22 3.682-8.22 8.22s3.682 8.22 8.22 8.22 8.22-3.682 8.22-8.22-3.682-8.22-8.22-8.22zm0 13.552c-2.944 0-5.332-2.388-5.332-5.332s2.388-5.332 5.332-5.332 5.332 2.388 5.332 5.332-2.388 5.332-5.332 5.332zM26.524 7.458c0 1.06-.859 1.919-1.919 1.919s-1.919-.859-1.919-1.919.859-1.919 1.919-1.919 1.919.859 1.919 1.919z" />
    </symbol>
    <symbol id="icon-linkedin" viewBox="0 0 32 32">
      <path
        d="M31.992 32v-.001H32V20.263c0-5.741-1.236-10.164-7.948-10.164-3.227 0-5.392 1.771-6.276 3.449h-.093v-2.913h-6.364v21.364h6.627V21.42c0-2.785.528-5.479 3.977-5.479 3.399 0 3.449 3.179 3.449 5.657v10.401h6.62zM.528 10.636h6.635V32H.528V10.636zM3.843 0C1.722 0 0 1.721 0 3.843s1.721 3.879 3.843 3.879c2.121 0 3.843-1.757 3.843-3.879C7.685 1.722 5.963 0 3.843 0z" />
    </symbol>
    <symbol id="icon-twitter" viewBox="0 0 32 32">
      <path
        d="M32 6.078c-1.19.522-2.458.868-3.78 1.036 1.36-.812 2.398-2.088 2.886-3.626-1.268.756-2.668 1.29-4.16 1.588C25.742 3.794 24.026 3 22.154 3c-3.632 0-6.556 2.948-6.556 6.562 0 .52.044 1.02.152 1.496-5.454-.266-10.28-2.88-13.522-6.862-.566.982-.898 2.106-.898 3.316 0 2.272 1.17 4.286 2.914 5.452-1.054-.02-2.088-.326-2.964-.808v.072c0 3.188 2.274 5.836 5.256 6.446-.534.146-1.116.216-1.72.216-.42 0-.844-.024-1.242-.112.85 2.598 3.262 4.508 6.13 4.57-2.232 1.746-5.066 2.798-8.134 2.798-.538 0-1.054-.024-1.57-.09C2.906 27.93 6.35 29 10.064 29c12.072 0 18.672-10 18.672-18.668 0-.29-.01-.57-.024-.848C30.014 8.56 31.108 7.406 32 6.078z" />
      <symbol id="icon-subscribe" viewBox="0 0 32 32">
        <path
          d="m32 2.667-32 15 10.227 3.156L26 8.5 14.002 21.988l.01.003-.012-.003v7.345l5.735-5.576L27 25.999l5-23.333z" />
      </symbol>
      <symbol id="icon-email" viewBox="0 0 24 32">
        <path
          d="M20 8H4c-1.1 0-1.99.9-1.99 2L2 22c0 1.1.9 2 2 2h16c1.1 0 2-.9 2-2V10c0-1.1-.9-2-2-2zm-.4 4.25-7.07 4.42c-.32.2-.74.2-1.06 0L4.4 12.25c-.25-.16-.4-.43-.4-.72 0-.67.73-1.07 1.3-.72L12 15l6.7-4.19c.57-.35 1.3.05 1.3.72 0 .29-.15.56-.4.72z" />
      </symbol>
      <symbol id="icon-phone" viewBox="0 0 24 32">
        <path
          d="m19.635 18.487-2.451-.28c-.589-.067-1.167.135-1.582.55l-1.775 1.775c-2.731-1.389-4.969-3.618-6.359-6.359l1.785-1.785c.415-.415.618-.994.55-1.582l-.28-2.432c-.116-.975-.936-1.708-1.92-1.708H5.934c-1.09 0-1.997.907-1.93 1.997.511 8.24 7.102 14.821 15.332 15.332 1.09.068 1.997-.839 1.997-1.93v-1.669c.01-.975-.724-1.795-1.698-1.911z" />
      </symbol>
      <symbol id="icon-person" viewBox="0 0 32 32">
        <path
          d="M16 16c2.947 0 5.333-2.387 5.333-5.333S18.946 5.334 16 5.334c-2.947 0-5.333 2.387-5.333 5.333S13.054 16 16 16zm0 2.667c-3.56 0-10.667 1.787-10.667 5.333v1.333c0 .733.6 1.333 1.333 1.333h18.667c.733 0 1.333-.6 1.333-1.333V24c0-3.547-7.107-5.333-10.667-5.333z" />
      </symbol>
      <symbol id="icon-close" viewBox="0 0 32 32">
        <path
          d="M32 3.223 28.777 0 16 12.777 3.223 0 0 3.223 12.777 16 0 28.777 3.223 32 16 19.223 28.777 32 32 28.777 19.223 16 32 3.223z" />
      </symbol>
      <symbol id="icon-check" viewBox="0 0 40 32">
        <path
          d="M33.782 1.02C34.473.358 35.393-.007 36.347 0s1.869.387 2.55 1.059c.681.672 1.076 1.584 1.101 2.543s-.321 1.891-.966 2.598L19.454 30.817a3.6743 3.6743 0 0 1-2.629 1.182c-.495.009-.986-.082-1.445-.268s-.876-.463-1.226-.815L1.17 17.862c-.362-.339-.652-.747-.853-1.201s-.309-.944-.318-1.441.082-.99.267-1.451c.185-.461.461-.879.81-1.231s.766-.628 1.224-.814.949-.277 1.443-.269a3.6754 3.6754 0 0 1 2.628 1.177l10.275 10.325 17.042-21.83c.031-.038.063-.074.098-.109h-.005z" />
      </symbol>
  </defs>
</svg>